<svg xmlns="http://www.w3.org/2000/svg" viewBox="0 0 128 128" width="128" height="128">
  <defs>
    <!-- Gradient for modern look -->
    <linearGradient id="chatGradient" x1="0%" y1="0%" x2="100%" y2="100%">
      <stop offset="0%" style="stop-color:#3b82f6;stop-opacity:1" />
      <stop offset="100%" style="stop-color:#1d4ed8;stop-opacity:1" />
    </linearGradient>
    
    <!-- Shadow filter -->
    <filter id="shadow" x="-50%" y="-50%" width="200%" height="200%">
      <feDropShadow dx="2" dy="2" stdDeviation="3" flood-color="#00000040"/>
    </filter>
  </defs>
  
  <!-- Background circle -->
  <circle cx="64" cy="64" r="56" fill="url(#chatGradient)" filter="url(#shadow)"/>
  
  <!-- Main chat bubble -->
  <path d="M30 35 C30 30, 35 25, 40 25 L80 25 C85 25, 90 30, 90 35 L90 55 C90 60, 85 65, 80 65 L50 65 L35 75 L40 65 C35 65, 30 60, 30 55 Z" 
        fill="white" opacity="0.95"/>
  
  <!-- Smaller chat bubble -->
  <path d="M45 55 C45 50, 50 45, 55 45 L85 45 C90 45, 95 50, 95 55 L95 70 C95 75, 90 80, 85 80 L65 80 L55 87 L60 80 C55 80, 50 75, 50 70 Z" 
        fill="white" opacity="0.8"/>
  
  <!-- Chat dots in main bubble -->
  <circle cx="50" cy="45" r="3" fill="url(#chatGradient)"/>
  <circle cx="64" cy="45" r="3" fill="url(#chatGradient)"/>
  <circle cx="78" cy="45" r="3" fill="url(#chatGradient)"/>
  
  <!-- Chat dots in smaller bubble -->
  <circle cx="65" cy="62" r="2.5" fill="url(#chatGradient)"/>
  <circle cx="75" cy="62" r="2.5" fill="url(#chatGradient)"/>
</svg>